<svg xmlns="http://www.w3.org/2000/svg" width="24" height="24" viewBox="0 0 24 24"><g fill-rule="evenodd" stroke-linejoin="round" class="nc-icon-wrapper" fill="#939fb4"><path d="M0 6.67h6.67v-6.67h10.75v6.67h6.58v10.71h-6.58v6.62h-10.75v-6.62h-6.67v-10.71z m18.14 2.53a6.69 6.69 0 0 0-6.08-3.85c-2.7 0-5.03 1.59-6.08 3.87l4.27-0.02c0.84 0 1.42-0.13 1.42-0.87 0-0.45-0.52-0.74-0.51-1.32 0-0.47 0.37-0.77 0.77-0.77 0.43 0 0.86 0.34 0.86 0.81 0 0.55-0.54 0.83-0.54 1.26 0 0.7 0.54 0.89 1.1 0.89h4.79z m-12.36 0.51a6.59 6.59 0 0 0 2.14 7.46l2.67-4.86c0.39-0.7 0.49-0.9 0.49-1.32 0-0.62-0.47-0.9-1.08-0.94l-4.23-0.34z m2.58 7.78c1.1 0.72 2.38 1.11 3.7 1.1 1.35 0 2.61-0.4 3.67-1.08l-3.04-4.47c-0.3-0.43-0.39-0.57-0.67-0.58-0.19 0-0.34 0.08-0.58 0.43l-3.08 4.6z m9.96-7.86l-4.21 0.49c-0.82 0.08-1.16 0.21-1.16 0.83 0 0.26 0.06 0.53 0.28 0.91l2.92 5.35a6.59 6.59 0 0 0 2.17-7.58z m-0.64 0.99a5.69 5.69 0 0 1-1.27 5.13l-2.33-4.55c-0.07-0.14 0-0.19 0.21-0.21l3.39-0.37z m-3.32 6.6a5.81 5.81 0 0 1-2.32 0.48c-0.85 0-1.66-0.18-2.39-0.52l2.18-3.15c0.1-0.13 0.22-0.3 0.42-0.01l2.11 3.2z m-7.95-6.5l3.32 0.24c0.31 0.01 0.5 0.07 0.29 0.45l-2.37 4.27a5.67 5.67 0 0 1-1.24-4.96z m3.84-4.19c-0.15 0.75-0.09 1.14 0.27 1.6 0.08 0.1 0 0.12-0.06 0.13h-2.81a5.79 5.79 0 0 1 2.6-1.73z m6.22 1.73c-0.83 0-3.04 0-3.06 0-0.03 0-0.11-0.04-0.05-0.1 0.58-0.52 0.43-1.3 0.3-1.7a5.79 5.79 0 0 1 2.81 1.8z" fill="#939fb4"></path></g></svg>