<svg xmlns="http://www.w3.org/2000/svg" width="24" height="24" viewBox="0 0 24 24"><g fill-rule="evenodd" stroke-linejoin="round" class="nc-icon-wrapper" fill="#939fb4"><path d="M3.98 0.01s3.26 1.9 8.3 1.9c2.8 0 4.32-0.4 7.68-1.9 0 0 1.5 2.76 1.49 7.38 0 6.52-2.96 13.06-9.12 16.61-6.3-3.85-9.78-10.1-9.78-17.31 0-2.38 0.44-4.07 1.43-6.68z m0.88 2.32l-0.11 0.47c-0.39 1.63-0.58 2.92-0.58 4.48 0 6.43 3.34 11.15 8.2 14.95 5.07-4.03 7.48-8.33 7.48-14.42 0-3.76-0.95-5.52-0.94-5.52-1.18 0.61-3.52 1.39-6.77 1.39-3.52 0-7.27-1.35-7.28-1.35z m0.85 1.23s2.95 0.97 6.56 0.96c2.57 0 4.13-0.32 6.09-0.96 0 0 0.51 1.82 0.51 3.98 0 5.8-1.99 9.66-6.5 13.51-3.76-2.81-7.15-7.68-7.14-13.93 0-1.2 0.13-2 0.48-3.56z m7.44 7.46v1.14c0.82-0.23 1.41-0.74 1.41-1.56 0-2.7-4.72-1.24-4.72-2.89 0-0.15 0.13-0.27 0.25-0.27 0.25 0 0.46 0.25 1.01 0.25 0.42 0 0.55-0.08 0.55-0.19 0-0.17-0.88-0.15-0.88-0.46 0-0.04 0-0.04 0.04-0.05 1.12 0 1.27 0 1.26-0.1a1.46 1.46 0 0 0-0.57-0.74c-0.21-0.12-0.65-0.19-0.95-0.19-1.22 0-2.04 0.8-2.04 1.77 0 1.05 0.76 1.92 1.92 2.21 0.42 0.11 1.09 0.15 1.58 0.19 1.12 0.08 1.14 0.15 1.14 0.89z m-2.36 0.39c-0.34 0.27-0.48 0.48-0.48 0.89 0 0.55 0.53 1.24 1.3 1.37 0.3 0.04 0.84 0.04 1.01 0.04 0.49 0.02 0.61 0.13 0.62 0.61v0.84c0.53-0.13 0.95-0.44 0.94-1.05 0-1.95-3.13-0.36-3.39-2.7z m0.59-3.43v0.19c0.87 0.04 1.08 0.13 1.54 0.27l0.11 0.02 1.53-1.54c0.11-0.17 0.15-0.27 0.15-0.33 0-0.27-0.32-0.48-0.57-0.49a0.61 0.61 0 0 0-0.38 0.15l-0.44 0.4c-0.25 0.23-0.25 0.23-0.32 0.23-0.08 0-0.11 0-0.12-0.69-0.02-0.38-0.04-0.4-0.4-0.55l-0.64-0.26c-0.1-0.03-0.13-0.06-0.23-0.06a0.23 0.23 0 0 0-0.21 0.24c0 0.06 0.04 0.13 0.11 0.21l1.01 1.14-0.32 0.35h0.23c0.11 0 0.17 0.02 0.17 0.13 0 0.13-0.04 0.17-0.17 0.17-0.21 0-0.19 0.02-0.23 0.02-0.04 0-0.13-0.02-0.17-0.02-0.19 0-0.06 0.38-0.65 0.42z m0.02 6.45c-0.42 0.19-0.7 0.42-0.7 0.91 0 1.53 2.7 0.99 2.39 2.61a0.96 0.96 0 0 0 0.59-0.93c0.01-1.48-2.6-0.99-2.28-2.59z m1.33-3.63c-0.46-0.13-1.01-0.25-1.41-0.25-0.17 0-0.19 0.02-0.19 0.15 0 1.35 0.7 1.44 1.6 1.52l0-1.42z m-0.02 3.47l-0.85-0.11v0.8l0.84 0.42v-1.11z m-0.74 2.82v2.21c0.02 0.32 0.1 0.55 0.4 0.55 0.25 0 0.36-0.17 0.36-0.57v-1.37c-0.15-0.21-0.06-0.4-0.19-0.59-0.08-0.13-0.34-0.23-0.57-0.23z m-0.21 1.66l-0.17-0.86a1.02 1.02 0 0 0-0.36 0.84c0 0.42 0.11 0.63 0.27 0.63 0.17 0 0.17-0.25 0.17-0.5l0.09-0.11z m-0.7-12.47l0.44 0.12c-0.02 0.09-0.1 0.19-0.17 0.19-0.08 0-0.19-0.13-0.27-0.31z" fill="#939fb4"></path></g></svg>