<svg width="325" height="275" viewBox="0 0 325 275" fill="none" xmlns="http://www.w3.org/2000/svg">
<path d="M295.346 125.824C290.755 56.4632 233.039 1.62402 162.518 1.62402C91.9941 1.62402 34.2768 56.4666 29.6887 125.83" stroke="white" stroke-width="0.681842"/>
<path d="M12.7067 165.754H16.988C21.7664 165.878 25.9243 162.775 25.8002 155.95C25.6754 149.744 22.5116 147.944 18.2297 147.944H12.7067V165.754ZM37.4038 188.032H30.2669C29.2755 188.032 28.8405 187.038 28.593 186.542L19.1597 169.105H12.7067V181.951C12.7067 184.37 13.6381 184.743 16.6771 185.363C17.4844 185.488 17.6085 185.984 17.361 186.481L16.8633 187.597C16.6771 187.846 16.3682 188.032 15.8098 188.032H2.77845C2.28138 188.032 1.66091 187.907 1.97114 187.1L2.34343 186.108C2.5923 185.425 3.08732 185.363 3.52233 185.239C5.07353 184.991 6.68745 184.06 6.68745 181.951V151.171C6.68745 148.752 5.44649 147.822 2.77845 147.387C1.84705 147.2 1.28862 147.014 1.59886 146.33L2.09592 145.277C2.34343 144.718 2.77845 144.594 3.15005 144.594H19.4699C26.9791 144.594 31.7581 147.822 31.8195 155.391C31.8195 160.169 28.5303 164.824 24.1862 167.305C30.0814 177.235 34.6109 184.928 37.4038 186.232V188.032Z" fill="white"/>
<path d="M46.6902 159.287H58.1609C58.8066 159.287 59.0554 159.585 58.8066 160.031L58.1118 161.273C57.8138 161.819 57.3174 161.969 56.5224 161.969H46.6902V172.198C46.6902 176.369 47.5834 176.816 49.7196 176.816H54.0896C59.2048 176.816 59.8996 172.694 60.5943 172.894L61.836 173.291C62.0344 173.34 62.1339 173.538 62.1339 173.738V178.256C62.1339 179.051 61.1903 179.498 59.8498 179.498H44.5049C42.9667 179.498 41.8737 179.547 41.8737 176.071V150.001C41.8737 148.064 40.8796 147.318 38.7447 146.971C38.0001 146.822 37.5535 146.673 37.8011 146.127L38.1986 145.282C38.397 144.835 38.7447 144.736 39.0427 144.736H58.4595C59.4032 144.736 59.9991 145.282 59.8995 145.978V149.603C59.8995 149.752 59.7993 149.901 59.6507 150.05L58.7575 150.795C58.0122 151.391 57.2676 147.419 53.9403 147.419H46.6902V159.287Z" fill="white"/>
<path d="M73.1979 161.223H84.6686C85.3156 161.223 85.5631 161.522 85.3156 161.969L84.6195 163.209C84.3215 163.706 83.8244 163.906 83.0301 163.906H73.1979V174.631C73.1979 176.567 73.9432 176.865 76.3767 177.362C77.0217 177.461 77.1206 177.858 76.9221 178.256L76.5253 179.15C76.3767 179.348 76.1278 179.498 75.6805 179.498H65.2531C64.8556 179.498 64.3592 179.398 64.6067 178.753L64.906 177.958C65.1031 177.412 65.5006 177.362 65.8483 177.264C67.09 177.064 68.3814 176.32 68.3814 174.631V150.001C68.3814 148.064 67.3879 147.318 65.2531 146.971C64.5078 146.822 64.0606 146.673 64.3094 146.127L64.7063 145.282C64.906 144.835 65.2531 144.736 65.5504 144.736H84.9665C85.9102 144.736 86.5068 145.282 86.4072 145.978V149.603C86.4072 149.752 86.3084 149.901 86.1591 150.05L85.2652 150.795C84.5206 151.391 83.7753 147.419 80.448 147.419H73.1979V161.223Z" fill="white"/>
<path d="M88.8365 177.958C89.0349 177.412 89.4324 177.362 89.7801 177.262C91.0218 177.064 92.3132 176.32 92.3132 174.631V149.603C92.3132 147.666 91.5679 147.369 89.1344 146.872C88.4887 146.773 88.3892 146.375 88.5876 145.979L88.9858 145.084C89.1344 144.886 89.3819 144.736 89.8292 144.736H100.258C100.654 144.736 101.152 144.835 100.903 145.481L100.605 146.275C100.407 146.822 100.01 146.872 99.6628 146.971C98.4211 147.17 97.1283 147.915 97.1283 149.603V172.198C97.1283 176.369 98.0229 176.816 100.159 176.816H104.529C109.644 176.816 110.338 172.694 111.034 172.892L112.275 173.291C112.474 173.34 112.573 173.538 112.573 173.736V178.256C112.573 179.051 111.63 179.498 110.289 179.498H89.1842C88.7874 179.498 88.291 179.398 88.5385 178.753L88.8365 177.958Z" fill="white"/>
<path d="M122.796 159.287H134.267C134.913 159.287 135.161 159.585 134.913 160.031L134.217 161.273C133.919 161.819 133.423 161.969 132.628 161.969H122.796V172.198C122.796 176.369 123.689 176.816 125.825 176.816H130.195C135.31 176.816 136.005 172.694 136.701 172.894L137.941 173.291C138.14 173.34 138.239 173.538 138.239 173.738V178.256C138.239 179.051 137.295 179.498 135.956 179.498H120.611C119.072 179.498 117.979 179.547 117.979 176.071V150.001C117.979 148.064 116.986 147.318 114.851 146.971C114.106 146.822 113.659 146.673 113.908 146.127L114.304 145.282C114.504 144.835 114.851 144.736 115.148 144.736H134.565C135.508 144.736 136.104 145.282 136.005 145.978V149.603C136.005 149.752 135.906 149.901 135.757 150.05L134.863 150.795C134.119 151.391 133.373 147.419 130.046 147.419H122.796V159.287Z" fill="white"/>
<path d="M189.515 174.63C189.515 176.567 190.26 176.865 192.693 177.362C193.338 177.46 193.437 177.858 193.239 178.255L192.842 179.149C192.693 179.347 192.444 179.497 191.997 179.497H181.57C181.172 179.497 180.675 179.397 180.923 178.753L181.222 177.958C181.42 177.411 181.817 177.362 182.165 177.262C183.407 177.064 184.697 176.319 184.697 174.63V147.815H173.574C172.88 147.815 172.184 147.567 172.88 146.773L173.823 145.332C174.369 144.785 174.915 144.736 175.709 144.736H200.637C201.334 144.736 202.028 144.984 201.334 145.779L200.39 147.219C199.843 147.766 199.298 147.815 198.503 147.815H189.515V174.63Z" fill="white"/>
<path d="M207.079 149.603C207.079 147.666 206.334 147.368 203.901 146.871C203.255 146.773 203.156 146.375 203.355 145.978L203.751 145.083C203.901 144.886 204.15 144.736 204.596 144.736H215.024C215.42 144.736 215.918 144.835 215.669 145.48L215.371 146.275C215.174 146.822 214.776 146.871 214.428 146.971C213.186 147.169 211.896 147.914 211.896 149.603V174.63C211.896 176.567 212.641 176.865 215.074 177.362C215.72 177.46 215.819 177.858 215.62 178.255L215.223 179.149C215.074 179.347 214.825 179.497 214.379 179.497H203.951C203.553 179.497 203.055 179.397 203.304 178.753L203.603 177.958C203.802 177.411 204.199 177.362 204.546 177.262C205.788 177.064 207.079 176.319 207.079 174.63V149.603Z" fill="white"/>
<path d="M250.121 161.968C250.121 152.632 244.957 146.822 237.359 146.822C230.257 146.822 224.944 152.334 224.944 161.272C224.944 170.509 229.711 177.411 237.955 177.411C246.297 177.411 250.121 169.02 250.121 161.968ZM219.679 162.812C219.679 153.078 226.683 144.141 238.401 144.141C248.233 144.141 255.384 151.838 255.384 161.422C255.384 172.445 247.142 180.093 236.663 180.093C228.967 180.093 219.679 174.035 219.679 162.812Z" fill="white"/>
<path d="M288.35 149.603C288.35 147.666 287.605 147.368 285.172 146.871C284.526 146.773 284.426 146.375 284.626 145.978L285.023 145.083C285.172 144.886 285.42 144.736 285.866 144.736H294.558C294.955 144.736 295.451 144.835 295.202 145.48L294.905 146.275C294.706 146.822 294.309 146.871 293.961 146.971C292.719 147.169 291.429 147.914 291.429 149.603V177.858C291.429 178.851 291.229 179.497 290.336 179.497H288.499C288.25 179.497 287.953 179.149 286.412 177.262L266.302 152.582H266.201V174.63C266.201 176.567 266.947 176.865 269.379 177.362C270.025 177.46 270.125 177.858 269.926 178.255L269.529 179.149C269.379 179.347 269.132 179.497 268.685 179.497H259.995C259.598 179.497 259.1 179.397 259.349 178.753L259.648 177.958C259.845 177.411 260.243 177.362 260.591 177.262C261.833 177.064 263.123 176.319 263.123 174.63V149.652C261.484 147.914 259.648 147.169 258.604 146.971C257.66 146.773 257.562 146.425 257.76 145.978L258.158 145.083C258.307 144.886 258.554 144.736 259.002 144.736H264.96C266.201 144.835 266.848 145.729 267.741 146.773L288.25 171.949H288.35V149.603Z" fill="white"/>
<path d="M320.051 153.839C319.555 154.274 318.376 151.73 317.57 150.116C316.329 147.572 314.466 146.64 311.673 146.64C308.633 146.64 305.407 148.502 304.91 151.667C304.228 156.135 307.455 158.679 312.543 162.092C319.306 166.622 323.155 169.787 323.402 176.738C323.65 184.68 315.956 188.775 308.944 188.775C305.468 188.775 302.925 188.279 300.939 187.658C297.711 186.666 297.711 186.603 297.711 184.991V178.971C297.711 178.288 297.464 177.357 298.083 177.109L299.76 176.552C300.629 176.303 300.629 179.033 302.18 181.639C303.357 184.37 306.152 185.611 309.131 185.611C314.156 185.611 317.259 182.198 317.445 177.854C317.879 172.269 311.55 168.422 307.703 165.692C304.041 163.084 298.953 160.23 298.953 154.149C298.953 149.806 303.979 143.848 312.171 143.848C315.025 143.848 317.259 144.345 319.12 145.089C320.982 145.833 321.975 146.393 321.85 147.447V152.04C321.85 152.287 321.664 152.474 321.479 152.721L320.051 153.839Z" fill="white"/>
<path d="M21.6304 215.215C21.1961 215.96 20.9786 216.333 20.7924 216.456C19.9865 216.859 17.9076 217.108 15.2388 217.108C7.54425 217.108 2.70386 212.454 2.70386 205.69C2.70386 199.609 7.79176 194.645 14.4936 194.645C18.2178 194.645 20.8238 195.761 21.7238 196.257C22.0641 196.381 22.0341 196.63 22.0341 196.846V198.925C22.0341 199.019 21.9714 199.113 21.8786 199.205L21.2888 199.702C20.8238 200.043 20.699 196.32 14.4009 196.32C9.00203 196.32 6.08648 200.384 6.08648 205.441C6.08648 211.647 10.3357 215.433 15.6111 215.433C18.0937 215.433 20.2967 214.501 21.3202 213.789C21.9714 213.322 22.4991 213.571 22.1268 214.284L21.6304 215.215Z" fill="white"/>
<path d="M42.9453 205.783C42.9453 199.95 39.7188 196.32 34.9711 196.32C30.5344 196.32 27.2145 199.764 27.2145 205.348C27.2145 211.12 30.1935 215.433 35.3434 215.433C40.5554 215.433 42.9453 210.188 42.9453 205.783ZM23.9253 206.311C23.9253 200.229 28.3007 194.645 35.6223 194.645C41.7664 194.645 46.2345 199.454 46.2345 205.441C46.2345 212.329 41.0838 217.108 34.5375 217.108C29.7284 217.108 23.9253 213.322 23.9253 206.311Z" fill="white"/>
<path d="M53.4042 208.359C53.4042 211.399 54.7378 214.998 58.6168 214.998C62.682 214.998 64.3559 212.764 64.3559 208.42V198.058C64.3559 196.848 63.8909 196.661 62.3704 196.352C61.9681 196.288 61.9054 196.041 62.0295 195.793L62.277 195.234C62.3704 195.109 62.5258 195.017 62.8047 195.017H68.2349C68.4838 195.017 68.7933 195.079 68.6386 195.483L68.4524 195.979C68.3276 196.32 68.0801 196.352 67.8626 196.413C67.0874 196.537 66.2807 197.002 66.2807 198.058V208.359C66.2807 214.967 62.5258 217.108 58.5555 217.108C52.2566 217.108 50.3938 213.137 50.3938 208.452V198.058C50.3938 196.848 49.9288 196.661 48.4083 196.352C48.006 196.288 47.9433 196.041 48.0674 195.793L48.3149 195.234C48.4083 195.109 48.5638 195.017 48.8433 195.017H55.359C55.6065 195.017 55.9167 195.079 55.7627 195.483L55.5765 195.979C55.4517 196.32 55.2029 196.352 54.9867 196.413C54.2115 196.537 53.4042 197.002 53.4042 198.058V208.359Z" fill="white"/>
<path d="M88.6202 198.058C88.6202 196.848 88.1552 196.661 86.634 196.351C86.231 196.289 86.169 196.041 86.2938 195.793L86.5413 195.234C86.634 195.11 86.7901 195.018 87.069 195.018H92.4978C92.7467 195.018 93.0569 195.079 92.9022 195.483L92.7153 195.979C92.5906 196.321 92.3431 196.351 92.1256 196.414C91.3503 196.537 90.543 197.003 90.543 198.058V215.711C90.543 216.333 90.4203 216.736 89.8605 216.736H88.7129C88.5588 216.736 88.3727 216.519 87.4099 215.34L74.8443 199.919H74.7829V213.695C74.7829 214.906 75.2479 215.092 76.7671 215.403C77.1707 215.464 77.2334 215.711 77.1093 215.96L76.8605 216.519C76.7671 216.643 76.613 216.736 76.3334 216.736H70.9039C70.6564 216.736 70.3455 216.674 70.5002 216.271L70.6864 215.774C70.8105 215.433 71.0594 215.403 71.2755 215.34C72.0514 215.216 72.8581 214.75 72.8581 213.695V198.089C71.8339 197.003 70.6864 196.537 70.0352 196.414C69.4454 196.289 69.3827 196.072 69.5075 195.793L69.755 195.234C69.8491 195.11 70.0039 195.018 70.2827 195.018H74.0056C74.7829 195.079 75.1859 195.637 75.7443 196.289L88.5588 212.02H88.6202V198.058Z" fill="white"/>
<path d="M105.345 199.64C105.097 199.857 104.507 198.586 104.105 197.778C103.483 196.507 102.552 196.041 101.157 196.041C99.6358 196.041 98.0233 196.972 97.7744 198.554C97.4328 200.788 99.0467 202.06 101.591 203.767C104.973 206.032 106.896 207.615 107.021 211.089C107.145 215.06 103.297 217.108 99.7906 217.108C98.0546 217.108 96.7816 216.86 95.7889 216.55C94.1756 216.054 94.1756 216.022 94.1756 215.215V212.206C94.1756 211.865 94.0515 211.399 94.3618 211.275L95.1991 210.996C95.6341 210.871 95.6341 212.237 96.4094 213.54C96.9991 214.906 98.3956 215.526 99.8847 215.526C102.397 215.526 103.948 213.82 104.042 211.648C104.259 208.855 101.095 206.932 99.1708 205.567C97.3401 204.263 94.7954 202.836 94.7954 199.795C94.7954 197.624 97.3094 194.645 101.405 194.645C102.832 194.645 103.948 194.893 104.88 195.265C105.811 195.637 106.307 195.916 106.245 196.444V198.74C106.245 198.865 106.152 198.958 106.059 199.081L105.345 199.64Z" fill="white"/>
<path d="M114.128 204.108H121.296C121.699 204.108 121.855 204.294 121.699 204.573L121.265 205.349C121.078 205.69 120.768 205.784 120.271 205.784H114.128V212.174C114.128 214.78 114.687 215.059 116.021 215.059H118.751C121.947 215.059 122.381 212.485 122.815 212.609L123.592 212.857C123.716 212.889 123.778 213.013 123.778 213.137V215.961C123.778 216.457 123.189 216.736 122.35 216.736H112.763C111.801 216.736 111.118 216.767 111.118 214.594V198.306C111.118 197.096 110.498 196.631 109.164 196.413C108.699 196.32 108.419 196.227 108.574 195.886L108.823 195.358C108.946 195.079 109.164 195.017 109.35 195.017H121.481C122.071 195.017 122.443 195.358 122.381 195.793V198.058C122.381 198.151 122.32 198.244 122.227 198.337L121.668 198.802C121.203 199.174 120.736 196.692 118.659 196.692H114.128V204.108Z" fill="white"/>
<path d="M125.576 215.774C125.7 215.433 125.948 215.402 126.166 215.34C126.941 215.215 127.748 214.749 127.748 213.696V198.058C127.748 196.847 127.282 196.661 125.762 196.35C125.359 196.289 125.296 196.041 125.421 195.793L125.67 195.234C125.762 195.11 125.917 195.017 126.197 195.017H132.712C132.96 195.017 133.271 195.079 133.115 195.483L132.929 195.978C132.805 196.32 132.557 196.35 132.34 196.413C131.564 196.536 130.757 197.003 130.757 198.058V212.175C130.757 214.78 131.317 215.06 132.65 215.06H135.382C138.577 215.06 139.01 212.485 139.445 212.609L140.221 212.858C140.345 212.889 140.407 213.013 140.407 213.137V215.961C140.407 216.456 139.817 216.735 138.979 216.735H125.794C125.545 216.735 125.234 216.674 125.39 216.27L125.576 215.774Z" fill="white"/>
<path d="M144.44 198.058C144.44 196.848 143.975 196.661 142.456 196.351C142.052 196.289 141.989 196.041 142.113 195.793L142.362 195.234C142.456 195.11 142.61 195.018 142.889 195.018H149.405C149.652 195.018 149.963 195.079 149.809 195.483L149.622 195.979C149.498 196.321 149.25 196.351 149.033 196.414C148.256 196.537 147.451 197.003 147.451 198.058V213.695C147.451 214.906 147.916 215.092 149.436 215.403C149.839 215.464 149.901 215.711 149.777 215.96L149.53 216.519C149.436 216.643 149.281 216.736 149.001 216.736H142.486C142.238 216.736 141.928 216.674 142.082 216.271L142.268 215.774C142.393 215.433 142.642 215.403 142.858 215.34C143.633 215.216 144.44 214.75 144.44 213.695V198.058Z" fill="white"/>
<path d="M170.561 198.058C170.561 196.848 170.095 196.661 168.575 196.351C168.172 196.289 168.109 196.041 168.233 195.793L168.482 195.234C168.575 195.11 168.729 195.018 169.008 195.018H174.439C174.687 195.018 174.997 195.079 174.842 195.483L174.656 195.979C174.531 196.321 174.284 196.351 174.066 196.414C173.291 196.537 172.484 197.003 172.484 198.058V215.711C172.484 216.333 172.36 216.736 171.801 216.736H170.654C170.498 216.736 170.312 216.519 169.351 215.34L156.785 199.919H156.722V213.695C156.722 214.906 157.187 215.092 158.708 215.403C159.111 215.464 159.174 215.711 159.05 215.96L158.801 216.519C158.708 216.643 158.554 216.736 158.274 216.736H152.845C152.596 216.736 152.285 216.674 152.441 216.271L152.627 215.774C152.751 215.433 152.999 215.403 153.216 215.34C153.992 215.216 154.799 214.75 154.799 213.695V198.089C153.775 197.003 152.627 196.537 151.976 196.414C151.386 196.289 151.323 196.072 151.448 195.793L151.696 195.234C151.788 195.11 151.945 195.018 152.223 195.018H155.946C156.722 195.079 157.126 195.637 157.685 196.289L170.498 212.02H170.561V198.058Z" fill="white"/>
<path d="M196.997 215.029C196.997 215.96 196.935 216.705 196.159 216.705H194.64C194.019 216.705 194.08 215.898 194.08 215.401V214.594H194.019C193.182 216.054 189.861 217.108 188.061 217.108C181.236 217.108 176.396 212.454 176.396 205.69C176.396 199.609 181.483 194.645 188.185 194.645C191.909 194.645 194.515 195.761 195.415 196.257C195.756 196.381 195.726 196.63 195.726 196.846V198.925C195.726 199.019 195.663 199.113 195.57 199.205L194.98 199.702C194.515 200.043 194.391 196.32 188.093 196.32C182.694 196.381 179.777 200.384 179.777 205.441C179.777 211.647 183.997 215.433 187.999 215.433C192.219 215.433 194.112 213.322 194.112 211.151C194.112 209.723 193.492 209.103 193.243 208.917C192.405 208.11 190.947 208.42 191.289 207.707L191.506 207.241C191.661 206.931 192.033 206.962 192.405 206.962H196.252C196.935 206.962 196.935 207.21 196.997 207.768V215.029Z" fill="white"/>
<path d="M229.634 215.215C229.198 215.96 228.981 216.333 228.796 216.456C227.988 216.859 225.91 217.108 223.242 217.108C215.548 217.108 210.706 212.454 210.706 205.69C210.706 199.609 215.794 194.645 222.497 194.645C226.22 194.645 228.826 195.761 229.726 196.257C230.068 196.381 230.036 196.63 230.036 196.846V198.925C230.036 199.019 229.975 199.113 229.881 199.205L229.291 199.702C228.826 200.043 228.703 196.32 222.404 196.32C217.005 196.32 214.089 200.384 214.089 205.441C214.089 211.647 218.339 215.433 223.615 215.433C226.097 215.433 228.299 214.501 229.324 213.789C229.975 213.322 230.501 213.571 230.13 214.284L229.634 215.215Z" fill="white"/>
<path d="M236.706 204.108H243.874C244.278 204.108 244.432 204.294 244.278 204.573L243.842 205.349C243.656 205.69 243.346 205.784 242.849 205.784H236.706V212.174C236.706 214.78 237.266 215.059 238.599 215.059H241.329C244.525 215.059 244.959 212.485 245.394 212.609L246.168 212.857C246.294 212.889 246.355 213.013 246.355 213.137V215.961C246.355 216.457 245.766 216.736 244.929 216.736H235.341C234.379 216.736 233.697 216.767 233.697 214.594V198.306C233.697 197.096 233.077 196.631 231.741 196.413C231.276 196.32 230.997 196.227 231.153 195.886L231.402 195.358C231.525 195.079 231.741 195.017 231.928 195.017H244.06C244.649 195.017 245.022 195.358 244.959 195.793V198.058C244.959 198.151 244.897 198.244 244.805 198.337L244.246 198.802C243.781 199.174 243.314 196.692 241.236 196.692H236.706V204.108Z" fill="white"/>
<path d="M266.212 198.058C266.212 196.848 265.747 196.661 264.226 196.351C263.822 196.289 263.761 196.041 263.885 195.793L264.133 195.234C264.226 195.11 264.38 195.018 264.661 195.018H270.089C270.338 195.018 270.648 195.079 270.493 195.483L270.307 195.979C270.182 196.321 269.935 196.351 269.717 196.414C268.942 196.537 268.135 197.003 268.135 198.058V215.711C268.135 216.333 268.01 216.736 267.452 216.736H266.304C266.149 216.736 265.963 216.519 265.002 215.34L252.436 199.919H252.373V213.695C252.373 214.906 252.839 215.092 254.36 215.403C254.762 215.464 254.824 215.711 254.701 215.96L254.452 216.519C254.36 216.643 254.204 216.736 253.924 216.736H248.495C248.247 216.736 247.936 216.674 248.092 216.271L248.278 215.774C248.402 215.433 248.651 215.403 248.867 215.34C249.643 215.216 250.45 214.75 250.45 213.695V198.089C249.425 197.003 248.278 196.537 247.627 196.414C247.037 196.289 246.974 196.072 247.099 195.793L247.347 195.234C247.441 195.11 247.595 195.018 247.876 195.018H251.597C252.373 195.079 252.777 195.637 253.336 196.289L266.149 212.02H266.212V198.058Z" fill="white"/>
<path d="M281.261 213.695C281.261 214.906 281.726 215.091 283.245 215.401C283.649 215.463 283.712 215.711 283.587 215.96L283.338 216.518C283.245 216.642 283.091 216.736 282.81 216.736H276.295C276.047 216.736 275.736 216.674 275.892 216.271L276.079 215.773C276.202 215.432 276.45 215.401 276.668 215.339C277.444 215.215 278.25 214.749 278.25 213.695V196.94H271.3C270.866 196.94 270.432 196.786 270.866 196.289L271.456 195.389C271.797 195.047 272.138 195.016 272.635 195.016H288.21C288.645 195.016 289.08 195.172 288.645 195.668L288.056 196.568C287.714 196.909 287.372 196.94 286.876 196.94H281.261V213.695Z" fill="white"/>
<path d="M294.598 204.108H301.766C302.169 204.108 302.325 204.294 302.169 204.573L301.735 205.349C301.548 205.69 301.237 205.784 300.741 205.784H294.598V212.174C294.598 214.78 295.157 215.059 296.49 215.059H299.222C302.418 215.059 302.851 212.485 303.286 212.609L304.061 212.857C304.186 212.889 304.248 213.013 304.248 213.137V215.961C304.248 216.457 303.659 216.736 302.82 216.736H293.233C292.271 216.736 291.588 216.767 291.588 214.594V198.306C291.588 197.096 290.969 196.631 289.634 196.413C289.169 196.32 288.89 196.227 289.044 195.886L289.293 195.358C289.418 195.079 289.634 195.017 289.82 195.017H301.951C302.541 195.017 302.913 195.358 302.851 195.793V198.058C302.851 198.151 302.79 198.244 302.697 198.337L302.138 198.802C301.674 199.174 301.206 196.692 299.129 196.692H294.598V204.108Z" fill="white"/>
<path d="M311.32 205.597H313.462C315.851 205.66 317.929 204.108 317.867 200.695C317.804 197.592 316.223 196.693 314.082 196.693H311.32V205.597ZM323.67 216.736H320.102C319.605 216.736 319.387 216.24 319.264 215.991L314.548 207.273H311.32V213.695C311.32 214.906 311.787 215.092 313.306 215.403C313.709 215.464 313.772 215.711 313.648 215.96L313.399 216.519C313.306 216.643 313.152 216.736 312.872 216.736H306.356C306.109 216.736 305.798 216.674 305.953 216.271L306.14 215.774C306.264 215.433 306.511 215.403 306.729 215.34C307.504 215.216 308.311 214.75 308.311 213.695V198.306C308.311 197.097 307.691 196.631 306.356 196.414C305.891 196.321 305.612 196.228 305.767 195.886L306.015 195.358C306.14 195.079 306.356 195.018 306.542 195.018H314.703C318.457 195.018 320.846 196.631 320.876 200.416C320.876 202.806 319.234 205.132 317.061 206.373C320.009 211.337 322.273 215.185 323.67 215.836V216.736Z" fill="white"/>
<path d="M42.0718 187.027H291.303" stroke="white" stroke-width="0.681842"/>
<path d="M1.85791 135.609H321.495" stroke="white" stroke-width="0.681842"/>
<path d="M62.0322 127.122C63.6706 104.036 85.4173 47.8804 90.78 36.5612C89.2908 36.4119 87.3537 36.2632 85.8646 36.2632C67.5428 36.2632 49.819 43.7103 49.819 59.2017C49.819 61.4355 50.2649 63.3719 50.5642 65.4576L41.626 68.4352C43.2644 42.6678 62.0322 32.539 95.0994 32.539H99.7169C91.6732 51.6047 75.5879 99.5668 74.098 120.121C73.8001 122.207 73.8001 123.845 73.6507 125.633L62.0322 127.122ZM82.2897 127.122C81.2471 123.697 80.9492 119.973 80.9492 116.398C80.9492 96.8865 95.9933 26.5811 129.061 26.5811C136.21 26.5811 144.402 31.7944 144.402 41.6245C144.402 62.9253 116.25 72.1595 105.527 73.6493C115.058 93.9061 142.764 152.146 165.999 152.146C171.361 152.146 174.192 146.932 174.192 144.102C174.192 143.358 173.894 142.613 173.745 141.718L183.576 138.443C182.681 142.464 176.724 154.381 162.723 154.381C131.443 154.381 109.1 99.8641 95.8447 72.4581H97.6318C114.314 72.4581 134.72 60.9882 134.72 45.4974C134.72 37.603 129.954 32.539 123.698 32.539C109.398 32.539 99.5676 50.5621 92.4185 73.0527C87.5031 88.0975 85.4173 102.397 85.4173 112.227C85.4173 121.164 87.3537 124.143 88.099 125.633L82.2897 127.122Z" fill="white" stroke="white" stroke-width="2.516" stroke-linecap="round" stroke-linejoin="round"/>
<path d="M201.571 119.973C196.358 121.76 184.889 127.867 167.76 127.867C145.567 127.867 133.353 117.143 133.353 96.1406C133.353 67.5421 158.227 30.3047 191.741 30.3047C206.338 30.3047 217.806 36.264 220.786 37.7518L214.827 51.7534C213.637 48.3285 208.72 34.0275 193.379 34.0275C174.611 34.0275 157.631 61.5842 157.631 84.82C157.631 95.5454 162.099 107.759 172.825 107.759C175.058 107.759 176.547 107.312 178.783 105.971L172.525 112.972C162.994 112.675 154.652 104.631 154.652 87.3531C154.652 57.712 174.463 36.4119 186.08 33.5816L185.782 32.9857C166.121 33.2837 144.524 65.1591 144.524 95.3967C144.524 112.377 155.993 123.399 173.42 123.399C187.719 123.399 199.337 117.143 203.657 114.759L201.571 119.973Z" fill="white" stroke="white" stroke-width="2.516" stroke-linecap="round" stroke-linejoin="round"/>
<path d="M273.664 119.973C268.45 121.76 256.98 127.867 239.852 127.867C217.658 127.867 205.444 117.143 205.444 96.1406C205.444 67.5421 230.319 30.3047 263.833 30.3047C278.43 30.3047 289.898 36.264 292.879 37.7518L286.919 51.7534C285.728 48.3285 280.813 34.0275 265.471 34.0275C246.703 34.0275 229.724 61.5842 229.724 84.82C229.724 95.5454 234.192 107.759 244.917 107.759C247.151 107.759 248.64 107.312 250.874 105.971L244.619 112.972C235.085 112.675 226.745 104.631 226.745 87.3531C226.745 57.712 246.556 36.4119 258.173 33.5816L257.875 32.9857C238.214 33.2837 216.617 65.1591 216.617 95.3967C216.617 112.377 228.085 123.399 245.512 123.399C259.811 123.399 271.43 117.143 275.748 114.759L273.664 119.973Z" fill="white" stroke="white" stroke-width="2.516" stroke-linecap="round" stroke-linejoin="round"/>
<path d="M201.571 119.973C196.358 121.76 184.889 127.867 167.76 127.867C145.567 127.867 133.353 117.143 133.353 96.1406C133.353 67.5421 158.227 30.3047 191.741 30.3047C206.338 30.3047 217.806 36.264 220.786 37.7518L214.827 51.7534C213.637 48.3285 208.72 34.0275 193.379 34.0275C174.611 34.0275 157.631 61.5842 157.631 84.82C157.631 95.5454 162.099 107.759 172.825 107.759C175.058 107.759 176.547 107.312 178.783 105.971L172.525 112.972C162.994 112.675 154.652 104.631 154.652 87.3531C154.652 57.712 174.463 36.4119 186.08 33.5816L185.782 32.9857C166.121 33.2837 144.524 65.1591 144.524 95.3967C144.524 112.377 155.993 123.399 173.42 123.399C187.719 123.399 199.337 117.143 203.657 114.759L201.571 119.973Z" fill="white"/>
<path d="M273.664 119.973C268.45 121.76 256.98 127.867 239.852 127.867C217.658 127.867 205.444 117.143 205.444 96.1406C205.444 67.5421 230.319 30.3047 263.833 30.3047C278.43 30.3047 289.898 36.264 292.879 37.7518L286.919 51.7534C285.728 48.3285 280.813 34.0275 265.471 34.0275C246.703 34.0275 229.724 61.5842 229.724 84.82C229.724 95.5454 234.192 107.759 244.917 107.759C247.151 107.759 248.64 107.312 250.874 105.971L244.619 112.972C235.085 112.675 226.745 104.631 226.745 87.3531C226.745 57.712 246.556 36.4119 258.173 33.5816L257.875 32.9857C238.214 33.2837 216.617 65.1591 216.617 95.3967C216.617 112.377 228.085 123.399 245.512 123.399C259.811 123.399 271.43 117.143 275.748 114.759L273.664 119.973Z" fill="white"/>
<path d="M195.01 250.394C199.715 245.583 205.653 240.222 213.455 236.51C227.88 229.648 245.787 228.37 255.061 246.285C255.701 248.739 256.01 250.12 256.086 251.567L195.01 250.394ZM191.068 250.467L181.703 250.445C181.703 250.445 192.242 236.968 199.585 234.666C200.543 234.339 203.02 234.428 203.942 236.137C203.824 236.769 204.611 237.206 204.385 237.944C198.523 242.031 191.068 250.467 191.068 250.467ZM182.992 259.673C179.64 263.405 175.826 266.951 170.811 269.296C168.947 270.003 166.793 269.118 165.555 267.403L165.572 266.451L178.895 253.675L188.048 253.694C188.048 253.694 184.747 257.721 182.992 259.673ZM153.573 268.775C152.732 268.442 152.114 267.585 152.128 266.738C156.43 262.901 165.263 253.893 165.263 253.893L174.468 253.914C174.468 253.914 161.284 270.159 153.573 268.775ZM141.929 269.096C140.871 269.102 139.291 268.73 138.894 267.241L138.913 266.184C143.537 262.035 148.382 257.361 152.516 253.996L161.323 254.009C161.323 254.009 149.383 268.903 141.929 269.096ZM126.697 268.822C125.652 268.063 124.712 267.41 124.416 266.243L124.778 265.19C131.271 261.603 138.717 253.681 138.717 253.681L147.892 253.7C147.892 253.7 134.822 270.026 126.697 268.822ZM110.911 270.021C84.1364 279.088 73.6721 264.142 72.121 256.283C72.0616 255.119 71.6778 253.023 71.7043 252.943C91.2623 253.928 133.798 253.396 133.798 253.396L132.992 254.121C132.992 254.121 121.297 266.079 110.911 270.021ZM142.025 248.992C147.926 244.444 152.144 236.371 159.486 234.07C161.5 233.893 163.4 234.14 164.32 235.956L164.303 236.908C160.096 241.382 151.764 250.226 151.764 250.226L140.943 250.296L142.025 248.992ZM173.848 234.194C175.28 233.983 176.934 234.7 177.759 235.879L177.74 236.936L164.277 250.068L155.708 250.033C155.708 250.033 169.219 234.058 173.848 234.194ZM185.671 234.603C187.538 233.791 189.638 234.293 190.786 235.16C191.615 236.128 190.755 236.851 190.212 237.689C185.694 241.735 177.503 250.158 177.503 250.158L168.669 250.165C168.669 250.165 178.414 238.071 185.671 234.603ZM313.601 252.018L257.939 251.677C257.939 251.677 257.234 246.932 256.107 244.903C254.729 242.216 242.401 218.574 205.456 237.222C204.906 235.545 203.404 233.694 201.4 233.339C199.351 232.484 194.246 233.926 192.413 235.904C191.473 235.226 191.239 233.502 188.288 232.788C184.808 232.197 181.508 233.3 179.028 235.9C178.313 234.46 179.136 234.323 175.454 232.692C171.773 231.062 168.789 234.554 165.59 235.979C164.412 233.789 161.222 231.667 157.821 232.559C148.667 235.568 136.657 250.378 136.657 250.378L71.7214 251.198C72.4462 246.131 75.134 241.261 78.998 238.182C91.9885 229.209 106.986 230.748 117.867 237.608C119.748 238.939 121.435 240.714 123.588 241.573C116.518 234.569 106.354 229.112 96.072 230.092C70.5711 233.125 70.4 251.518 70.2718 251.304C52.8221 250.779 31.1409 251.917 14.4262 251.724L14.4187 252.145C33.2491 252.378 70.3584 252.998 70.3584 252.998C70.2275 260.297 75.4811 267.585 81.557 271.081C95.8204 278.082 111.765 274.002 123.011 266.375C123.986 268.059 124.809 269.422 127.094 270.31C130.881 271.543 134.619 269.571 137.411 267.294C137.972 268.494 138.566 269.299 140.194 269.936C144.113 271.145 148.21 269.922 150.786 267.852C151.67 268.714 152.385 270.128 154.29 270.058C158.281 271.822 162.775 268.966 164.624 267.703C166.167 270.166 168.818 271.216 171.528 270.577C180.25 268.089 192.465 253.653 192.465 253.653C192.465 253.653 235.595 252.913 256.359 252.974C256.359 252.974 257.294 264.286 242.959 270.061C230.201 273.43 215.655 270.311 206.303 260.832L205.774 260.824C213.44 269.955 223.945 274.163 235.807 273.53C243.855 273.145 253.224 268.445 256.363 260.195C257.78 256.649 257.974 252.871 257.974 252.871L313.634 252.374L313.601 252.018Z" fill="white"/>
<path d="M146.345 149.335C150.139 145.542 153.418 144.14 159.68 144.14C165.64 144.14 167.63 144.995 169.07 145.79C169.615 145.987 169.566 146.386 169.566 146.733V148.812C169.566 148.961 169.467 149.793 169.319 149.943L168.375 150.54C166.463 149.693 169.612 146.821 159.532 146.821C154.311 146.821 153.506 147.73 149.927 151.309M148.373 152.862C146.954 155.264 146.223 158.218 146.223 161.421C146.223 171.353 153.027 177.411 161.468 177.411C165.441 177.411 168.967 175.921 170.605 174.779C171.649 174.035 172.493 174.432 171.896 175.574L171.102 177.063C170.407 178.256 170.059 178.851 169.761 179.05C168.471 179.696 165.143 180.093 160.872 180.093C148.557 180.093 140.811 172.644 140.811 161.818C140.811 157.768 142.417 153.831 144.837 150.844" fill="white"/>
<path d="M62.0322 127.122C63.6706 104.036 85.4173 47.8804 90.78 36.5612C89.2908 36.4119 87.3537 36.2632 85.8646 36.2632C67.5428 36.2632 49.819 43.7103 49.819 59.2017C49.819 61.4355 50.2649 63.3719 50.5642 65.4576L41.626 68.4352C43.2644 42.6678 62.0322 32.539 95.0994 32.539H99.7169C91.6732 51.6047 75.5879 99.5668 74.098 120.121C73.8001 122.207 73.8001 123.845 73.6507 125.633L62.0322 127.122ZM82.2897 127.122C81.2471 123.697 80.9492 119.973 80.9492 116.398C80.9492 96.8865 95.9933 26.5811 129.061 26.5811C136.21 26.5811 144.402 31.7944 144.402 41.6245C144.402 62.9253 116.25 72.1595 105.527 73.6493C115.058 93.9061 142.764 152.146 165.999 152.146C171.361 152.146 174.192 146.932 174.192 144.102C174.192 143.358 173.894 142.613 173.745 141.718L183.576 138.443C182.681 142.464 176.724 154.381 162.723 154.381C131.443 154.381 109.1 99.8641 95.8447 72.4581H97.6318C114.314 72.4581 134.72 60.9882 134.72 45.4974C134.72 37.603 129.954 32.539 123.698 32.539C109.398 32.539 99.5676 50.5621 92.4185 73.0527C87.5031 88.0975 85.4173 102.397 85.4173 112.227C85.4173 121.164 87.3537 124.143 88.099 125.633L82.2897 127.122Z" fill="white"/>
</svg>
