<?xml version="1.0" encoding="UTF-8" standalone="no"?><!DOCTYPE svg PUBLIC "-//W3C//DTD SVG 1.1//EN" "http://www.w3.org/Graphics/SVG/1.1/DTD/svg11.dtd"><svg width="100%" height="100%" viewBox="0 0 50 50" version="1.1" xmlns="http://www.w3.org/2000/svg" xmlns:xlink="http://www.w3.org/1999/xlink" xml:space="preserve" xmlns:serif="http://www.serif.com/" style="fill-rule:evenodd;clip-rule:evenodd;stroke-linejoin:round;stroke-miterlimit:2;"><g><path d="M41.68,43.397c0,1.144 -0.942,2.085 -2.085,2.085l-29.19,-0c-1.143,-0 -2.085,-0.941 -2.085,-2.085l-0,-18.765l-6.255,0l21.532,-19.574c0.792,-0.72 2.014,-0.72 2.806,-0l21.532,19.574l-6.255,0l0,18.765Zm-16.68,-6.255l7.004,-7.003c0.879,-0.88 1.374,-2.074 1.374,-3.318c-0,-2.573 -2.118,-4.691 -4.692,-4.691c-1.243,0 -2.438,0.495 -3.317,1.374l-0.369,0.369l-0.369,-0.369c-0.879,-0.879 -2.074,-1.374 -3.317,-1.374c-2.574,0 -4.692,2.118 -4.692,4.691c0,1.244 0.495,2.438 1.374,3.318l7.004,7.005l0,-0.002Z" style="fill:#fff;fill-rule:nonzero;stroke:#31193e;stroke-width:2.08px;"/><path d="M25,37.143l-7.004,-7.004c-0.879,-0.88 -1.374,-2.074 -1.374,-3.318c0,-2.573 2.118,-4.691 4.692,-4.691c1.243,0 2.438,0.495 3.317,1.374l0.369,0.369l0.369,-0.369c0.879,-0.879 2.074,-1.374 3.317,-1.374c2.574,0 4.692,2.118 4.692,4.691c-0,1.244 -0.495,2.438 -1.374,3.318l-7.004,7.004Z" style="fill:#31193e;stroke:#31193e;stroke-width:2.08px;"/></g></svg>