<svg xmlns="http://www.w3.org/2000/svg" width="50" height="50" viewBox="0 0 50 50"><g fill-rule="evenodd" class="nc-icon-wrapper" fill="#939fb4"><path d="M6.786 23.154L6.663 6.678h1.029l7.051 16.177 7.051-16.177h1.03l-.123 16.476" fill="none" stroke="#939fb4" stroke-width="4.08"></path><path d="M42.821 29.115c-.591-1.723-1.45-2.978-2.575-3.764-1.124-.786-2.539-1.179-4.244-1.179-1.96 0-3.598.436-4.914 1.309-1.316.872-2.241 2.043-2.774 3.513a13.215 13.215 0 0 0-.801 4.547c0 2.013.316 3.771.948 5.274.632 1.502 1.615 2.624 2.949 3.367a8.752 8.752 0 0 0 4.331 1.115c1.89 0 3.491-.506 4.801-1.518 1.311-1.013 2.198-2.515 2.662-4.507" fill="none" fill-rule="nonzero" stroke="#939fb4" stroke-width="4.08" stroke-linejoin="round"></path><path d="M3.488 28.454h25.787" fill="none" stroke="#939fb4" stroke-width="4.08" stroke-linejoin="bevel" stroke-miterlimit="1"></path><path d="M50 0v50H0V0h50zm-4.079 4.079H4.079v41.842h41.842V4.079z"></path></g></svg>