<svg width="117" height="60" viewBox="0 0 117 60" fill="none" xmlns="http://www.w3.org/2000/svg">
<path d="M74.4809 43.49C72.0532 44.3222 66.7127 47.1662 58.7361 47.1662C48.4015 47.1662 42.7139 42.172 42.7139 32.392C42.7139 19.0746 54.297 1.73438 69.9033 1.73438C76.7006 1.73438 82.0409 4.50943 83.4287 5.20224L80.6536 11.7223C80.0996 10.1275 77.81 3.46799 70.666 3.46799C61.9265 3.46799 54.0195 16.3002 54.0195 27.1204C54.0195 32.1148 56.1002 37.8024 61.0946 37.8024C62.1348 37.8024 62.8282 37.5941 63.869 36.9699L60.9552 40.2298C56.5167 40.0914 52.6323 36.3457 52.6323 28.2999C52.6323 14.4971 61.8576 4.57833 67.2674 3.26034L67.1286 2.98283C57.9732 3.12158 47.916 17.9649 47.916 32.0456C47.916 39.9526 53.2565 45.0852 61.3718 45.0852C68.0303 45.0852 73.4404 42.172 75.4522 41.062L74.4809 43.49Z" fill="white"/>
<path d="M108.052 43.49C105.625 44.3222 100.283 47.1662 92.3076 47.1662C81.9723 47.1662 76.2847 42.172 76.2847 32.392C76.2847 19.0746 87.8681 1.73438 103.474 1.73438C110.272 1.73438 115.612 4.50943 117 5.20224L114.225 11.7223C113.67 10.1275 111.381 3.46799 104.237 3.46799C95.4979 3.46799 87.5909 16.3002 87.5909 27.1204C87.5909 32.1148 89.6716 37.8024 94.666 37.8024C95.7062 37.8024 96.3997 37.5941 97.4398 36.9699L94.5273 40.2298C90.0875 40.0914 86.2037 36.3457 86.2037 28.2999C86.2037 14.4971 95.429 4.57833 100.839 3.26034L100.7 2.98283C91.5446 3.12158 81.4874 17.9649 81.4874 32.0456C81.4874 39.9526 86.828 45.0852 94.9432 45.0852C101.602 45.0852 107.012 42.172 109.023 41.062L108.052 43.49Z" fill="white"/>
<path d="M9.50249 46.8187C10.2655 36.0681 20.3922 9.91843 22.8894 4.64742C22.196 4.57788 21.2939 4.50866 20.6005 4.50866C12.0686 4.50866 3.81522 7.97653 3.81522 15.1904C3.81522 16.2306 4.02287 17.1323 4.16226 18.1036L0 19.4901C0.76298 7.49105 9.50249 2.77442 24.9009 2.77442H27.051C23.3054 11.6527 15.8149 33.9871 15.1212 43.5585C14.9824 44.5297 14.9824 45.2927 14.9129 46.1252L9.50249 46.8187ZM18.9358 46.8187C18.4503 45.2235 18.3115 43.4896 18.3115 41.8249C18.3115 32.7389 25.3171 0 40.7155 0C44.0446 0 47.8595 2.42769 47.8595 7.00526C47.8595 16.9243 34.7497 21.2244 29.7566 21.9181C34.195 31.3511 47.0965 58.4714 57.9167 58.4714C60.4136 58.4714 61.7319 56.0437 61.7319 54.7257C61.7319 54.3793 61.5928 54.0322 61.5236 53.6156L66.1015 52.0903C65.6849 53.9627 62.9108 59.5122 56.3907 59.5122C41.8249 59.5122 31.4206 34.1255 25.2479 21.3635H26.0801C33.8486 21.3635 43.3508 16.0223 43.3508 8.80872C43.3508 5.13257 41.1314 2.77442 38.2182 2.77442C31.5594 2.77442 26.9815 11.1672 23.6524 21.6403C21.3635 28.6462 20.3922 35.3051 20.3922 39.8823C20.3922 44.0443 21.2939 45.4315 21.641 46.1252L18.9358 46.8187Z" fill="white"/>
</svg>
