<?xml version="1.0" encoding="UTF-8" standalone="no"?><!DOCTYPE svg PUBLIC "-//W3C//DTD SVG 1.1//EN" "http://www.w3.org/Graphics/SVG/1.1/DTD/svg11.dtd"><svg width="100%" height="100%" viewBox="0 0 50 50" version="1.1" xmlns="http://www.w3.org/2000/svg" xmlns:xlink="http://www.w3.org/1999/xlink" xml:space="preserve" xmlns:serif="http://www.serif.com/" style="fill-rule:evenodd;clip-rule:evenodd;stroke-linecap:round;stroke-linejoin:round;stroke-miterlimit:1.5;"><g><rect x="2.065" y="17.625" width="5.998" height="14.75" style="fill:#fff;stroke:#31193e;stroke-width:2.15px;"/><path d="M35.873,10.708c-2.565,2.741 -4.31,8.116 -4.31,14.292c-0,6.176 1.745,11.551 4.31,14.292c-8.877,-4.433 -18.074,-7.59 -27.811,-8.585l0,-11.414c8.69,-1.118 18.048,-4.244 27.811,-8.585Z" style="fill:#fff;stroke:#31193e;stroke-width:2.15px;"/><path d="M35.873,10.708c1.154,-1.233 2.474,-1.933 3.876,-1.933c4.518,0 8.186,7.27 8.186,16.225c0,8.955 -3.668,16.225 -8.186,16.225c-1.402,-0 -2.722,-0.7 -3.876,-1.933c-1.927,-2.058 -3.391,-5.603 -4,-9.857l6.779,-1.603c1.323,-0.269 2.32,-1.44 2.32,-2.843c0,-1.402 -0.997,-2.574 -2.32,-2.843l-6.778,-1.59c0.611,-4.25 2.074,-7.791 3.999,-9.848Z" style="fill:#fff;stroke:#31193e;stroke-width:2.15px;"/><path d="M31.874,20.556l6.778,1.59c1.323,0.269 2.32,1.441 2.32,2.843c0,1.403 -0.997,2.574 -2.32,2.843l-6.779,1.603c-0.202,-1.41 -0.31,-2.898 -0.31,-4.435c-0,-1.541 0.108,-3.032 0.311,-4.444Z" style="fill:#fff;stroke:#31193e;stroke-width:2.15px;"/></g></svg>