<?xml version="1.0" encoding="UTF-8" standalone="no"?><!DOCTYPE svg PUBLIC "-//W3C//DTD SVG 1.1//EN" "http://www.w3.org/Graphics/SVG/1.1/DTD/svg11.dtd"><svg width="100%" height="100%" viewBox="0 0 50 50" version="1.1" xmlns="http://www.w3.org/2000/svg" xmlns:xlink="http://www.w3.org/1999/xlink" xml:space="preserve" xmlns:serif="http://www.serif.com/" style="fill-rule:evenodd;clip-rule:evenodd;stroke-linejoin:round;stroke-miterlimit:2;"><path d="M8.112,2.593c1.622,-0.578 3.375,-0.684 5.055,-0.305c1.68,0.378 3.217,1.226 4.435,2.444c1.217,1.217 2.064,2.756 2.442,4.436c0.378,1.68 0.271,3.432 -0.308,5.054l28.199,28.196l-5.514,5.517l-28.199,-28.196c-1.622,0.579 -3.376,0.685 -5.056,0.307c-1.681,-0.379 -3.22,-1.226 -4.437,-2.445c-1.218,-1.218 -2.065,-2.757 -2.443,-4.438c-0.377,-1.68 -0.27,-3.434 0.309,-5.056l5.814,5.816c0.362,0.362 0.792,0.65 1.265,0.846c0.473,0.196 0.98,0.297 1.492,0.297c0.512,0 1.02,-0.101 1.493,-0.297c0.473,-0.195 0.903,-0.483 1.265,-0.845c0.363,-0.362 0.65,-0.792 0.846,-1.265c0.196,-0.473 0.297,-0.98 0.297,-1.492c0,-0.512 -0.1,-1.02 -0.296,-1.493c-0.196,-0.473 -0.483,-0.903 -0.845,-1.265l-5.814,-5.816Zm26.954,4.895l8.273,-4.596l3.678,3.678l-4.596,8.273l-4.597,0.918l-8.274,8.274l-3.679,-3.676l8.277,-8.274l0.918,-4.597Zm-15.624,17.465l5.512,5.517l-15.628,15.627c-0.708,0.709 -1.662,1.118 -2.664,1.142c-1.002,0.025 -1.975,-0.338 -2.717,-1.012c-0.742,-0.674 -1.196,-1.608 -1.267,-2.607c-0.072,-1 0.244,-1.989 0.882,-2.762l0.252,-0.278l15.63,-15.627Z" style="fill:#1d76d7;fill-rule:nonzero;stroke:#31193e;stroke-width:2.08px;"/></svg>